<?xml version="1.0" encoding="UTF-8" standalone="no"?>
<!-- Created with Inkscape (http://www.inkscape.org/) -->

<svg
   width="64.065285mm"
   height="64.065285mm"
   viewBox="0 0 64.065285 64.065285"
   version="1.1"
   id="svg1"
   inkscape:version="1.4.3 (0d15f75042, 2025-12-25)"
   sodipodi:docname="Flit_logos.svg"
   xmlns:inkscape="http://www.inkscape.org/namespaces/inkscape"
   xmlns:sodipodi="http://sodipodi.sourceforge.net/DTD/sodipodi-0.dtd"
   xmlns="http://www.w3.org/2000/svg"
   xmlns:svg="http://www.w3.org/2000/svg">
  <sodipodi:namedview
     id="namedview1"
     pagecolor="#ffffff"
     bordercolor="#000000"
     borderopacity="0.25"
     inkscape:showpageshadow="2"
     inkscape:pageopacity="0.0"
     inkscape:pagecheckerboard="0"
     inkscape:deskcolor="#d1d1d1"
     inkscape:document-units="mm"
     showguides="true"
     inkscape:zoom="1.4984147"
     inkscape:cx="403.09268"
     inkscape:cy="366.72091"
     inkscape:window-width="1920"
     inkscape:window-height="1057"
     inkscape:window-x="0"
     inkscape:window-y="0"
     inkscape:window-maximized="1"
     inkscape:current-layer="layer2">
    <sodipodi:guide
       position="-81.409896,31.880305"
       orientation="0,-1"
       id="guide5"
       inkscape:locked="false" />
    <sodipodi:guide
       position="-51.277602,62.012606"
       orientation="1,0"
       id="guide6"
       inkscape:locked="false" />
    <sodipodi:guide
       position="32.184972,0.99454457"
       orientation="1,0"
       id="guide7"
       inkscape:locked="false" />
    <sodipodi:guide
       position="35.086492,39.984765"
       orientation="0,-1"
       id="guide8"
       inkscape:locked="false" />
    <sodipodi:guide
       position="7.7388118,7.8600747"
       orientation="0,-1"
       id="guide10"
       inkscape:locked="false" />
    <inkscape:page
       x="0"
       y="0"
       width="64.065285"
       height="64.065285"
       id="page2"
       margin="0"
       bleed="0" />
  </sodipodi:namedview>
  <defs
     id="defs1" />
  <g
     inkscape:groupmode="layer"
     id="layer2"
     inkscape:label="Layer 2"
     transform="translate(-120.83051,-59.969595)">
    <rect
       style="fill:#000000;fill-opacity:0;stroke-width:0.28251"
       id="rect1-6"
       width="64.065277"
       height="64.065285"
       x="120.83052"
       y="59.969597"
       inkscape:export-filename="flit_core_logo_512.png"
       inkscape:export-xdpi="202.99294"
       inkscape:export-ydpi="202.99294" />
    <path
       id="path7-3-18"
       style="fill:#00a9ff;fill-opacity:1;stroke:none;stroke-width:0.229442;stroke-opacity:1"
       d="m 124.23523,66.437965 c 14.78712,-2e-6 26.39766,11.502543 26.51457,25.5257 m -26.51457,-25.5257 c 0,14.309654 10.2377,25.525691 26.51457,25.5257"
       sodipodi:nodetypes="cccc"
       transform="translate(-0.15234082,2.9323506)" />
    <path
       id="path7-3-18-2"
       style="fill:#00a9ff;fill-opacity:1;stroke:none;stroke-width:0.229442;stroke-opacity:1"
       d="m 181.90056,66.455745 c -14.78712,-2e-6 -26.39766,11.502543 -26.51457,25.525699 m 26.51457,-25.525699 c 0,14.309654 -10.2377,25.525691 -26.51457,25.525699"
       sodipodi:nodetypes="cccc"
       transform="translate(-0.15234082,2.9323506)" />
    <path
       id="path7-3-1-9"
       style="fill:#00a9ff;fill-opacity:1;stroke:none;stroke-width:0.205513;stroke-opacity:1"
       d="m 128.56933,116.17482 c -1e-5,-13.5018 10.10704,-24.103108 22.42891,-24.209865 m -22.42891,24.209865 c 12.5736,0 22.4289,-9.34782 22.42891,-24.209865"
       sodipodi:nodetypes="cccc"
       transform="translate(-0.15234082,2.9323506)" />
    <path
       id="path7-3-1-9-5"
       style="fill:#00a9ff;fill-opacity:1;stroke:none;stroke-width:0.205373;stroke-opacity:1"
       d="m 177.55117,116.17481 c 10e-6,-13.49259 -10.10015,-24.086681 -22.41362,-24.193366 m 22.41362,24.193366 c -12.56503,0 -22.41361,-9.34145 -22.41362,-24.193366"
       sodipodi:nodetypes="cccc"
       transform="translate(-0.15234082,2.9323506)" />
    <path
       style="display:inline;fill:none;fill-opacity:0.5;stroke:#404040;stroke-width:1.58575;stroke-linecap:round;stroke-linejoin:round;stroke-dasharray:none;stroke-opacity:1"
       d="m 150.99824,91.964955 c 0,24.209865 -22.42891,24.209865 -22.42891,24.209865"
       id="path9"
       transform="translate(-0.15234082,2.9323506)" />
    <path
       style="display:inline;fill:none;fill-opacity:0.5;stroke:#404040;stroke-width:1.58466;stroke-linecap:round;stroke-linejoin:round;stroke-dasharray:none;stroke-opacity:1"
       d="m 155.13755,91.981444 c 0,24.193366 22.41362,24.193366 22.41362,24.193366"
       id="path8"
       transform="translate(-0.15234082,2.9323506)" />
    <path
       style="display:inline;fill:none;fill-opacity:0.5;stroke:#404040;stroke-width:1.965;stroke-linecap:round;stroke-linejoin:round;stroke-dasharray:none;stroke-opacity:1"
       d="M 150.14766,84.20713 C 146.83687,63.091858 123.0155,62.154578 123.0155,62.154578 c 0,0 -1e-5,30.000003 29.99999,30.000003 30.00001,-2e-6 30.00001,-30.000003 30.00001,-30.000003 0,0 -22.97575,1.236392 -27.09849,21.895544"
       id="path6-2"
       transform="translate(-0.15234082,2.9323506)" />
  </g>
</svg>
